<?xml version="1.0" encoding="UTF-8"?>
<svg width="112px" height="80px" viewBox="0 0 112 80" version="1.1" xmlns="http://www.w3.org/2000/svg" xmlns:xlink="http://www.w3.org/1999/xlink">
    <!-- Generator: Sketch 59.1 (86144) - https://sketch.com -->
    <title>mdpi/2-左-默认</title>
    <desc>Created with Sketch.</desc>
    <g id="Page-1" stroke="none" stroke-width="1" fill="none" fill-rule="evenodd">
        <g id="DJ-状态" transform="translate(-168.000000, -664.000000)" fill-rule="nonzero">
            <g id="Group-11" transform="translate(40.000000, 616.000000)">
                <g id="分组-2-copy-2">
                    <g id="2-左-默认" transform="translate(128.000000, 48.000000)">
                        <rect id="矩形" stroke="#204244" stroke-width="2" fill="#212326" x="1" y="1" width="110" height="78" rx="8"></rect>
                        <g id="编组-2" transform="translate(11.997630, 11.400000)">
                            <rect id="矩形" fill="#90583A" x="0.00237041638" y="48.6" width="88" height="4" rx="2"></rect>
                            <g id="6" fill="#204244">
                                <path d="M21.7623704,6.36 C21.7623704,8.093342 21.2423756,9.559994 20.2023704,10.76 C19.0823648,12.0400064 17.6690456,12.68 15.9623704,12.68 L10.4823704,12.68 C8.93569602,12.68 7.81570722,12.8399984 7.12237042,13.16 C6.13569882,13.6400024 5.53570482,14.5199936 5.32237042,15.8 L20.8023704,15.8 L20.8023704,20.6 L0.0423704164,20.6 L0.00237041638,18.16 C-0.104296784,11.3066324 3.38900162,7.88 10.4823704,7.88 L15.9623704,7.88 C16.6557072,7.88 17.0023704,7.3600052 17.0023704,6.32 C17.0023704,5.3066616 16.6557072,4.8 15.9623704,4.8 L1.00237042,4.8 L1.00237042,1.81188398e-13 L15.9623704,1.81188398e-13 C17.6690456,1.81188398e-13 19.0823648,0.6399936 20.2023704,1.92 C21.2423756,3.1466728 21.7623704,4.626658 21.7623704,6.36 Z" id="2"></path>
                            </g>
                        </g>
                    </g>
                </g>
            </g>
        </g>
    </g>
</svg>