<?xml version="1.0" encoding="UTF-8"?>
<svg width="112px" height="80px" viewBox="0 0 112 80" version="1.1" xmlns="http://www.w3.org/2000/svg" xmlns:xlink="http://www.w3.org/1999/xlink">
    <!-- Generator: Sketch 59.1 (86144) - https://sketch.com -->
    <title>mdpi/3-左-默认</title>
    <desc>Created with Sketch.</desc>
    <g id="Page-1" stroke="none" stroke-width="1" fill="none" fill-rule="evenodd">
        <g id="DJ-状态" transform="translate(-296.000000, -664.000000)" fill-rule="nonzero">
            <g id="Group-11" transform="translate(40.000000, 616.000000)">
                <g id="分组-2-copy-2">
                    <g id="3-左-默认" transform="translate(256.000000, 48.000000)">
                        <rect id="矩形" stroke="#204244" stroke-width="2" fill="#212326" x="1" y="1" width="110" height="78" rx="8"></rect>
                        <g id="编组-3" transform="translate(12.000000, 11.400000)">
                            <rect id="矩形" fill="#0866A9" x="0" y="48.6" width="88" height="4" rx="2"></rect>
                            <g id="7" fill="#204244">
                                <path d="M19.68,10.16 C21.3600084,11.2000052 22.2,12.786656 22.2,14.92 C22.2,16.4666744 21.7066716,17.773328 20.72,18.84 C19.653328,20.0133392 18.2133424,20.6 16.4,20.6 L5.8,20.6 C3.9866576,20.6 2.546672,20.0133392 1.48,18.84 C0.4933284,17.773328 -9.23705556e-14,16.4666744 -9.23705556e-14,14.92 L-9.23705556e-14,14.24 L4.76,14.24 C4.76,15.2800052 5.1066632,15.8 5.8,15.8 L16.4,15.8 C17.0933368,15.8 17.44,15.2800052 17.44,14.24 C17.44,13.1999948 17.0933368,12.68 16.4,12.68 L6.6,12.68 L6.6,7.92 L16,7.92 C16.6933368,7.92 17.04,7.4000052 17.04,6.36 C17.04,5.3199948 16.6933368,4.8 16,4.8 L6.2,4.8 C5.5066632,4.8 5.16,5.333328 5.16,6.4 L0.4,6.4 L0.4,5.72 C0.4,4.1733256 0.8799952,2.866672 1.84,1.8 C2.906672,0.599994 4.3599908,1.81188398e-13 6.2,1.81188398e-13 L16,1.81188398e-13 C17.8400092,1.81188398e-13 19.293328,0.5866608 20.36,1.76 C21.3200048,2.826672 21.8,4.1199924 21.8,5.64 C21.8,7.5866764 21.0933404,9.093328 19.68,10.16 Z" id="3"></path>
                            </g>
                        </g>
                    </g>
                </g>
            </g>
        </g>
    </g>
</svg>