<?xml version="1.0" encoding="UTF-8" standalone="no"?>
<svg
   xmlns:dc="http://purl.org/dc/elements/1.1/"
   xmlns:cc="http://creativecommons.org/ns#"
   xmlns:rdf="http://www.w3.org/1999/02/22-rdf-syntax-ns#"
   xmlns:svg="http://www.w3.org/2000/svg"
   xmlns="http://www.w3.org/2000/svg"
   xmlns:xlink="http://www.w3.org/1999/xlink"
   xmlns:sodipodi="http://sodipodi.sourceforge.net/DTD/sodipodi-0.dtd"
   xmlns:inkscape="http://www.inkscape.org/namespaces/inkscape"
   width="64px"
   height="40px"
   viewBox="0 0 64 40"
   version="1.1"
   id="svg34"
   sodipodi:docname="CUE-左-默认.svg"
   inkscape:version="0.92.5 (2060ec1f9f, 2020-04-08)">
  <metadata
     id="metadata38">
    <rdf:RDF>
      <cc:Work
         rdf:about="">
        <dc:format>image/svg+xml</dc:format>
        <dc:type
           rdf:resource="http://purl.org/dc/dcmitype/StillImage" />
        <dc:title>mdpi/CUE-默认</dc:title>
      </cc:Work>
    </rdf:RDF>
  </metadata>
  <sodipodi:namedview
     pagecolor="#ffffff"
     bordercolor="#666666"
     borderopacity="1"
     objecttolerance="10"
     gridtolerance="10"
     guidetolerance="10"
     inkscape:pageopacity="0"
     inkscape:pageshadow="2"
     inkscape:window-width="1440"
     inkscape:window-height="837"
     id="namedview36"
     showgrid="false"
     inkscape:zoom="4.609375"
     inkscape:cx="4.9898305"
     inkscape:cy="20"
     inkscape:window-x="-8"
     inkscape:window-y="-8"
     inkscape:window-maximized="1"
     inkscape:current-layer="CUE-默认" />
  <!-- Generator: Sketch 59.1 (86144) - https://sketch.com -->
  <title
     id="title2">mdpi/CUE-默认</title>
  <desc
     id="desc4">Created with Sketch.</desc>
  <defs
     id="defs15">
    <rect
       id="path-1"
       x="0"
       y="0"
       width="64"
       height="40"
       rx="8" />
    <filter
       x="-1.2%"
       y="-1.9%"
       width="102.3%"
       height="103.8%"
       filterUnits="objectBoundingBox"
       id="filter-2">
      <feOffset
         dx="0"
         dy="1.5"
         in="SourceAlpha"
         result="shadowOffsetInner1"
         id="feOffset7" />
      <feComposite
         in="shadowOffsetInner1"
         in2="SourceAlpha"
         operator="arithmetic"
         k2="-1"
         k3="1"
         result="shadowInnerInner1"
         id="feComposite9" />
      <feColorMatrix
         values="0 0 0 0 1   0 0 0 0 1   0 0 0 0 1  0 0 0 0.150843524 0"
         type="matrix"
         in="shadowInnerInner1"
         id="feColorMatrix11" />
    </filter>
    <path
       d="M24.08,25 L17.712,25 C16.9653296,25 16.3306693,24.7520025 15.808,24.256 C15.2853308,23.76 15.024,23.1386704 15.024,22.392 L15.024,19.368 C15.024,18.6213296 15.2853308,18.0000025 15.808,17.504 C16.3306693,17.0079975 16.9653296,16.76 17.712,16.76 L24.08,16.76 L24.08,18.68 L17.712,18.68 C17.1999975,18.68 16.944,18.909331 16.944,19.368 L16.944,22.392 C16.944,22.850669 17.1999975,23.08 17.712,23.08 L24.08,23.08 L24.08,25 Z M36.792,22.44 C36.792,23.1333368 36.5733355,23.7306642 36.136,24.232 C35.6986645,24.7333358 35.1386701,24.984 34.456,24.984 L29.016,24.984 C28.3226632,24.984 27.7600022,24.7333358 27.328,24.232 C26.8959978,23.7306642 26.68,23.1333368 26.68,22.44 L26.68,16.76 L28.6,16.76 L28.6,22.44 C28.6,22.8560021 28.7386653,23.064 29.016,23.064 L34.456,23.064 C34.722668,23.064 34.856,22.8560021 34.856,22.44 L34.856,16.76 L36.792,16.76 L36.792,22.44 Z M48.176,18.68 L41.312,18.68 L41.312,19.912 L47.728,19.912 L47.728,21.832 L41.312,21.832 L41.312,23.08 L48.16,23.08 L48.16,25 L39.392,25 L39.392,16.76 L48.176,16.76 L48.176,18.68 Z"
       id="path-3" />
  </defs>
  <g
     style="fill:none;fill-rule:nonzero;stroke:none;stroke-width:1"
     id="分组-8"
     transform="translate(-160)">
    <g
       id="Group-21">
      <g
         id="CUE-默认"
         transform="translate(160)">
        <g
           id="矩形"
           style="fill:#00ff00">
          <use
             xlink:href="#path-1"
             id="use17"
             style="fill:#00ff00"
             x="0"
             y="0"
             width="100%"
             height="100%" />
          <use
             xlink:href="#path-1"
             id="use19"
             style="fill:#00ff00;fill-opacity:1;filter:url(#filter-2)"
             x="0"
             y="0"
             width="100%"
             height="100%" />
          <rect
             stroke-linejoin="square"
             x="0.5"
             y="0.5"
             width="63"
             height="39"
             rx="8"
             id="rect21"
             style="stroke:#000000;stroke-width:1;fill:#00ff00" />
        </g>
        <g
           id="CUE"
           style="opacity:0.49988373;fill:#0000ff">
          <use
             xlink:href="#path-3"
             id="use24"
             x="0"
             y="0"
             width="100%"
             height="100%"
             style="fill:#0000ff" />
        </g>
      </g>
    </g>
  </g>
</svg>
