<?xml version="1.0" encoding="UTF-8"?>
<svg width="640px" height="160px" viewBox="0 0 640 160" version="1.1" xmlns="http://www.w3.org/2000/svg" xmlns:xlink="http://www.w3.org/1999/xlink">
    <title>画板</title>
    <defs>
        <linearGradient x1="50%" y1="0%" x2="50%" y2="100%" id="linearGradient-1">
            <stop stop-color="#006DE4" offset="0%"></stop>
            <stop stop-color="#FFAA00" offset="100%"></stop>
        </linearGradient>
        <linearGradient x1="50%" y1="0%" x2="50%" y2="100%" id="linearGradient-2">
            <stop stop-color="#242629" offset="0%"></stop>
            <stop stop-color="#939497" offset="100%"></stop>
        </linearGradient>
        <linearGradient x1="50%" y1="0%" x2="50%" y2="100%" id="linearGradient-3">
            <stop stop-color="#242629" offset="0%"></stop>
            <stop stop-color="#888888" offset="100%"></stop>
        </linearGradient>
        <linearGradient x1="50%" y1="0%" x2="50%" y2="100%" id="linearGradient-4">
            <stop stop-color="#242629" offset="0%"></stop>
            <stop stop-color="#8D8D8D" offset="100%"></stop>
        </linearGradient>
        <linearGradient x1="50%" y1="0%" x2="50%" y2="100%" id="linearGradient-5">
            <stop stop-color="#4E5053" offset="0%"></stop>
            <stop stop-color="#8B8C8F" offset="100%"></stop>
        </linearGradient>
        <linearGradient x1="50%" y1="0%" x2="50%" y2="100%" id="linearGradient-6">
            <stop stop-color="#242629" offset="0%"></stop>
            <stop stop-color="#8F9093" offset="100%"></stop>
        </linearGradient>
    </defs>
    <g id="画板" stroke="none" stroke-width="1" fill="none" fill-rule="evenodd">
        <g id="编组-13" fill-rule="nonzero">
            <path d="M270.680205,78.8173913 C277.777874,78.8173913 283.810892,76.4452174 288.77926,71.7008696 C293.747628,66.9565217 296.231812,61.0133333 296.231812,53.8713043 L296.231812,53.8713043 L296.231812,24.946087 C296.231812,17.804058 293.747628,11.8608696 288.77926,7.11652174 C283.810892,2.37217391 277.777874,0 270.680205,0 L270.680205,0 L224.74815,0 C217.650482,0 211.617463,2.37217391 206.649095,7.11652174 C201.680727,11.8608696 199.196543,17.804058 199.196543,24.946087 L199.196543,24.946087 L199.196543,53.8713043 C199.196543,61.0133333 201.680727,66.9565217 206.649095,71.7008696 C211.617463,76.4452174 217.650482,78.8173913 224.74815,78.8173913 L224.74815,78.8173913 L270.680205,78.8173913 Z M270.680205,60.4521739 L224.74815,60.4521739 C219.881177,60.4521739 217.447691,58.2585507 217.447691,53.8713043 L217.447691,53.8713043 L217.447691,24.946087 C217.447691,20.5588406 219.881177,18.3652174 224.74815,18.3652174 L224.74815,18.3652174 L270.680205,18.3652174 C275.547178,18.3652174 277.980664,20.5588406 277.980664,24.946087 L277.980664,24.946087 L277.980664,53.8713043 C277.980664,58.2585507 275.547178,60.4521739 270.680205,60.4521739 L270.680205,60.4521739 Z" id="O" fill="url(#linearGradient-1)"></path>
            <path d="M322.087605,78.8173913 L322.087605,53.106087 L379.57872,53.106087 C386.372203,53.106087 391.847547,50.3002899 396.004753,44.6886957 C399.857773,39.6892754 401.784283,33.6695652 401.784283,26.6295652 C401.784283,19.5895652 399.857773,13.5188406 396.004753,8.4173913 C391.847547,2.8057971 386.372203,0 379.57872,0 L379.57872,0 L303.836457,0 L303.836457,78.8173913 L322.087605,78.8173913 Z M379.57872,34.7408696 L322.087605,34.7408696 L322.087605,18.3652174 L379.57872,18.3652174 C382.214997,18.3652174 383.533135,21.12 383.533135,26.6295652 C383.533135,32.0371014 382.214997,34.7408696 379.57872,34.7408696 L379.57872,34.7408696 Z" id="P" fill="url(#linearGradient-2)"></path>
            <path d="M111.743127,78.8173913 L111.743127,18.3652174 L168.321685,18.3652174 C171.667729,18.3652174 173.340751,21.0689855 173.340751,26.4765217 C173.340751,31.884058 171.667729,34.5878261 168.321685,34.5878261 L168.321685,34.5878261 L121.32498,34.5878261 L160.412854,78.8173913 L185.35609,78.8173913 L162.390062,52.9530435 L169.386335,52.9530435 C176.382609,52.9530435 181.908651,50.1982609 185.964461,44.6886957 C189.716086,39.6892754 191.591898,33.6185507 191.591898,26.4765217 C191.591898,19.3344928 189.716086,13.2637681 185.964461,8.26434783 C181.908651,2.75478261 176.382609,0 169.386335,0 L169.386335,0 L93.4919795,0 L93.4919795,78.8173913 L111.743127,78.8173913 Z" id="R" fill="url(#linearGradient-3)"></path>
            <path d="M60.4878207,78.8173913 C67.5854892,78.8173913 73.5931587,76.4452174 78.5108291,71.7008696 C83.4284994,66.9565217 85.8873346,61.0133333 85.8873346,53.8713043 L85.8873346,53.8713043 L85.8873346,24.946087 C85.8873346,17.804058 83.4284994,11.8608696 78.5108291,7.11652174 C73.5931587,2.37217391 67.5854892,0 60.4878207,0 L60.4878207,0 L0.106940319,0 L0.106940319,18.3652174 L60.4878207,18.3652174 C65.1520029,18.3652174 67.484094,20.5588406 67.484094,24.946087 L67.484094,24.946087 L67.484094,53.8713043 C67.484094,58.2585507 65.1520029,60.4521739 60.4878207,60.4521739 L60.4878207,60.4521739 L18.358088,60.4521739 L18.358088,29.0782609 L0.106940319,29.0782609 L0.106940319,78.8173913 L60.4878207,78.8173913 Z" id="D" fill="url(#linearGradient-4)"></path>
            <path d="M615.306505,86.6477291 C622.404173,86.6477291 628.437192,84.2755551 633.40556,79.5312073 C638.373928,74.7868595 640.858112,68.8436711 640.858112,61.7016421 L640.858112,61.7016421 L640.858112,7.83033775 L622.454871,7.83033775 L622.454871,61.7016421 C622.454871,66.0888885 620.072082,68.2825117 615.306505,68.2825117 L615.306505,68.2825117 L576.522816,68.2825117 L576.522816,86.6477291 L615.306505,86.6477291 Z" id="J" fill="url(#linearGradient-5)"></path>
            <path d="M543.518657,86.6477291 C550.616326,86.6477291 556.623995,84.2755551 561.541665,79.5312073 C566.459336,74.7868595 568.918171,68.8436711 568.918171,61.7016421 L568.918171,61.7016421 L568.918171,32.7764247 C568.918171,25.6343957 566.459336,19.6912073 561.541665,14.9468595 C556.623995,10.2025117 550.616326,7.83033775 543.518657,7.83033775 L543.518657,7.83033775 L483.137777,7.83033775 L483.137777,26.1955551 L543.518657,26.1955551 C548.182839,26.1955551 550.51493,28.3891783 550.51493,32.7764247 L550.51493,32.7764247 L550.51493,61.7016421 C550.51493,66.0888885 548.182839,68.2825117 543.518657,68.2825117 L543.518657,68.2825117 L501.388924,68.2825117 L501.388924,36.9085986 L483.137777,36.9085986 L483.137777,86.6477291 L543.518657,86.6477291 Z" id="D" fill="url(#linearGradient-6)"></path>
        </g>
    </g>
</svg>