<?xml version="1.0" encoding="UTF-8"?>
<svg width="112px" height="40px" viewBox="0 0 112 40" version="1.1" xmlns="http://www.w3.org/2000/svg" xmlns:xlink="http://www.w3.org/1999/xlink">
    <!-- Generator: Sketch 59.1 (86144) - https://sketch.com -->
    <title>mdpi/HOT_CUE-默认</title>
    <desc>Created with Sketch.</desc>
    <defs>
        <rect id="path-1" x="0" y="0" width="112" height="40" rx="8"></rect>
        <filter x="-0.7%" y="-1.9%" width="101.3%" height="103.8%" filterUnits="objectBoundingBox" id="filter-2">
            <feOffset dx="0" dy="1.5" in="SourceAlpha" result="shadowOffsetInner1"></feOffset>
            <feComposite in="shadowOffsetInner1" in2="SourceAlpha" operator="arithmetic" k2="-1" k3="1" result="shadowInnerInner1"></feComposite>
            <feColorMatrix values="0 0 0 0 1   0 0 0 0 1   0 0 0 0 1  0 0 0 0.145210598 0" type="matrix" in="shadowInnerInner1"></feColorMatrix>
        </filter>
    </defs>
    <g id="Page-1" stroke="none" stroke-width="1" fill="none" fill-rule="evenodd">
        <g id="DJ-状态" transform="translate(-41.000000, -784.000000)" fill-rule="nonzero">
            <g id="Group-11" transform="translate(40.000000, 616.000000)">
                <g id="分组-2-copy-3" transform="translate(1.000000, 168.000000)">
                    <g id="Group-2">
                        <g id="HOT_CUE-默认">
                            <g id="矩形">
                                <use fill="#212326" xlink:href="#path-1"></use>
                                <use fill="black" fill-opacity="1" filter="url(#filter-2)" xlink:href="#path-1"></use>
                                <rect stroke="#000000" stroke-width="1" stroke-linejoin="square" x="0.5" y="0.5" width="111" height="39" rx="8"></rect>
                            </g>
                            <g id="HOTCUE-2" transform="translate(16.112000, 15.760000)" fill="#FFFFFF" opacity="0.495605469">
                                <path d="M8.784,8.24 L6.848,8.24 L6.848,5.072 L1.92,5.072 L1.92,8.24 L-2.62900812e-13,8.24 L-2.62900812e-13,-1.09245946e-13 L1.92,-1.09245946e-13 L1.92,3.152 L6.848,3.152 L6.848,-1.09245946e-13 L8.784,-1.09245946e-13 L8.784,8.24 Z M21.592,5.632 C21.592,6.3786704 21.3306692,7 20.808,7.496 C20.2853307,7.99200248 19.6506704,8.24 18.904,8.24 L14.072,8.24 C13.3253296,8.24 12.6906692,7.99200248 12.168,7.496 C11.6453307,7 11.384,6.3786704 11.384,5.632 L11.384,2.608 C11.384,1.8613296 11.6453307,1.24000248 12.168,0.744 C12.6906692,0.24799752 13.3253296,-1.09245946e-13 14.072,-1.09245946e-13 L18.904,-1.09245946e-13 C19.6506704,-1.09245946e-13 20.2853307,0.24799752 20.808,0.744 C21.3306692,1.24000248 21.592,1.8613296 21.592,2.608 L21.592,5.632 Z M19.672,5.632 L19.672,2.608 C19.672,2.14933104 19.4160025,1.92 18.904,1.92 L14.072,1.92 C13.5599974,1.92 13.304,2.14933104 13.304,2.608 L13.304,5.632 C13.304,6.09066896 13.5599974,6.32 14.072,6.32 L18.904,6.32 C19.4160025,6.32 19.672,6.09066896 19.672,5.632 Z M33.5359999,1.92 L29.8239999,1.92 L29.8239999,8.24 L27.9039999,8.24 L27.9039999,1.92 L24.1919999,1.92 L24.1919999,-1.09245946e-13 L33.5359999,-1.09245946e-13 L33.5359999,1.92 Z M54.8799998,8.24 L48.5119998,8.24 C47.7653294,8.24 47.1306691,7.99200248 46.6079998,7.496 C46.0853305,7 45.8239998,6.3786704 45.8239998,5.632 L45.8239998,2.608 C45.8239998,1.8613296 46.0853305,1.24000248 46.6079998,0.744 C47.1306691,0.24799752 47.7653294,-1.09245946e-13 48.5119998,-1.09245946e-13 L54.8799998,-1.09245946e-13 L54.8799998,1.92 L48.5119998,1.92 C47.9999972,1.92 47.7439998,2.14933104 47.7439998,2.608 L47.7439998,5.632 C47.7439998,6.09066896 47.9999972,6.32 48.5119998,6.32 L54.8799998,6.32 L54.8799998,8.24 Z M67.5919998,5.68 C67.5919998,6.3733368 67.3733353,6.97066416 66.9359998,7.472 C66.4986642,7.97333584 65.9386698,8.224 65.2559998,8.224 L59.8159998,8.224 C59.122663,8.224 58.5600019,7.97333584 58.1279998,7.472 C57.6959976,6.97066416 57.4799998,6.3733368 57.4799998,5.68 L57.4799998,-1.09245946e-13 L59.3999998,-1.09245946e-13 L59.3999998,5.68 C59.3999998,6.09600208 59.538665,6.304 59.8159998,6.304 L65.2559998,6.304 C65.5226678,6.304 65.6559998,6.09600208 65.6559998,5.68 L65.6559998,-1.09245946e-13 L67.5919998,-1.09245946e-13 L67.5919998,5.68 Z M78.9759997,1.92 L72.1119997,1.92 L72.1119997,3.152 L78.5279997,3.152 L78.5279997,5.072 L72.1119997,5.072 L72.1119997,6.32 L78.9599997,6.32 L78.9599997,8.24 L70.1919997,8.24 L70.1919997,-1.09245946e-13 L78.9759997,-1.09245946e-13 L78.9759997,1.92 Z" id="HOTCUE"></path>
                            </g>
                        </g>
                    </g>
                </g>
            </g>
        </g>
    </g>
</svg>