<?xml version="1.0" encoding="UTF-8"?>
<svg width="112px" height="40px" viewBox="0 0 112 40" version="1.1" xmlns="http://www.w3.org/2000/svg" xmlns:xlink="http://www.w3.org/1999/xlink">
    <!-- Generator: Sketch 59.1 (86144) - https://sketch.com -->
    <title>mdpi/MANURL_LOOP-默认</title>
    <desc>Created with Sketch.</desc>
    <defs>
        <rect id="path-1" x="0" y="0" width="112" height="40" rx="8"></rect>
        <filter x="-0.7%" y="-1.9%" width="101.3%" height="103.8%" filterUnits="objectBoundingBox" id="filter-2">
            <feOffset dx="0" dy="1.5" in="SourceAlpha" result="shadowOffsetInner1"></feOffset>
            <feComposite in="shadowOffsetInner1" in2="SourceAlpha" operator="arithmetic" k2="-1" k3="1" result="shadowInnerInner1"></feComposite>
            <feColorMatrix values="0 0 0 0 1   0 0 0 0 1   0 0 0 0 1  0 0 0 0.145210598 0" type="matrix" in="shadowInnerInner1"></feColorMatrix>
        </filter>
    </defs>
    <g id="Page-1" stroke="none" stroke-width="1" fill="none" fill-rule="evenodd">
        <g id="DJ-状态" transform="translate(-297.000000, -784.000000)" fill-rule="nonzero">
            <g id="Group-11" transform="translate(40.000000, 616.000000)">
                <g id="分组-2-copy-3" transform="translate(1.000000, 168.000000)">
                    <g id="Group-2">
                        <g id="MANURL_LOOP-默认" transform="translate(256.000000, 0.000000)">
                            <g id="矩形">
                                <use fill="#212326" xlink:href="#path-1"></use>
                                <use fill="black" fill-opacity="1" filter="url(#filter-2)" xlink:href="#path-1"></use>
                                <rect stroke="#000000" stroke-width="1" stroke-linejoin="square" x="0.5" y="0.5" width="111" height="39" rx="8"></rect>
                            </g>
                            <g id="MANURLLOOP-2" transform="translate(19.080000, 7.760000)" fill="#FFFFFF" opacity="0.498488653">
                                <path d="M10.688,8.24 L8.768,8.24 L8.768,3.216 L5.344,8.096 L1.92,3.216 L1.92,8.24 L-1.13686838e-13,8.24 L-1.13686838e-13,-1.10134124e-13 L2.016,-1.10134124e-13 L5.344,4.752 L8.688,-1.10134124e-13 L10.688,-1.10134124e-13 L10.688,8.24 Z M23.384,8.24 L21.464,8.24 L21.464,5.616 L16.408,5.616 L16.408,3.696 L21.464,3.696 L21.464,2.544 C21.464,2.12799792 21.3253347,1.92 21.048,1.92 L15.608,1.92 C15.341332,1.92 15.208,2.12799792 15.208,2.544 L15.208,8.24 L13.288,8.24 L13.288,2.544 C13.288,1.8506632 13.5039978,1.25333584 13.936,0.752 C14.3680021,0.25066416 14.9253299,-1.10134124e-13 15.608,-1.10134124e-13 L21.048,-1.10134124e-13 C21.7413368,-1.10134124e-13 22.3039978,0.25066416 22.736,0.752 C23.1680021,1.25333584 23.384,1.8506632 23.384,2.544 L23.384,8.24 Z M34.7679999,8.24 L32.8479999,8.24 L27.9039999,2.688 L27.9039999,8.24 L25.9839999,8.24 L25.9839999,-1.10134124e-13 L27.9039999,-1.10134124e-13 L32.8479999,5.504 L32.8479999,-1.10134124e-13 L34.7679999,-1.10134124e-13 L34.7679999,8.24 Z M47.4799999,5.68 C47.4799999,6.3733368 47.2613354,6.97066416 46.8239999,7.472 C46.3866643,7.97333584 45.8266699,8.224 45.1439999,8.224 L39.7039999,8.224 C39.0106631,8.224 38.448002,7.97333584 38.0159999,7.472 C37.5839977,6.97066416 37.3679999,6.3733368 37.3679999,5.68 L37.3679999,-1.10134124e-13 L39.2879999,-1.10134124e-13 L39.2879999,5.68 C39.2879999,6.09600208 39.4266651,6.304 39.7039999,6.304 L45.1439999,6.304 C45.4106679,6.304 45.5439999,6.09600208 45.5439999,5.68 L45.5439999,-1.10134124e-13 L47.4799999,-1.10134124e-13 L47.4799999,5.68 Z M59.7439998,8.24 L57.1199998,8.24 L53.0079998,3.616 L57.9519998,3.616 C58.3040016,3.616 58.4799998,3.33333616 58.4799998,2.768 C58.4799998,2.20266384 58.3040016,1.92 57.9519998,1.92 L51.9999998,1.92 L51.9999998,8.24 L50.0799998,8.24 L50.0799998,-1.10134124e-13 L58.0639998,-1.10134124e-13 C58.8000035,-1.10134124e-13 59.381331,0.28799712 59.8079998,0.864 C60.2026684,1.38666928 60.3999998,2.0213296 60.3999998,2.768 C60.3999998,3.5146704 60.2026684,4.14933072 59.8079998,4.672 C59.381331,5.24800288 58.8000035,5.536 58.0639998,5.536 L57.3279998,5.536 L59.7439998,8.24 Z M71.2399998,8.24 L62.9999998,8.24 L62.9999998,-1.10134124e-13 L64.9199998,-1.10134124e-13 L64.9199998,6.32 L71.2399998,6.32 L71.2399998,8.24 Z M21.3799999,24.24 L13.1399999,24.24 L13.1399999,16 L15.0599999,16 L15.0599999,22.32 L21.3799999,22.32 L21.3799999,24.24 Z M34.1879999,21.632 C34.1879999,22.3786704 33.9266692,23 33.4039999,23.496 C32.8813306,23.9920025 32.2466703,24.24 31.4999999,24.24 L26.6679999,24.24 C25.9213295,24.24 25.2866692,23.9920025 24.7639999,23.496 C24.2413306,23 23.9799999,22.3786704 23.9799999,21.632 L23.9799999,18.608 C23.9799999,17.8613296 24.2413306,17.2400025 24.7639999,16.744 C25.2866692,16.2479975 25.9213295,16 26.6679999,16 L31.4999999,16 C32.2466703,16 32.8813306,16.2479975 33.4039999,16.744 C33.9266692,17.2400025 34.1879999,17.8613296 34.1879999,18.608 L34.1879999,21.632 Z M32.2679999,21.632 L32.2679999,18.608 C32.2679999,18.149331 32.0120024,17.92 31.4999999,17.92 L26.6679999,17.92 C26.1559973,17.92 25.8999999,18.149331 25.8999999,18.608 L25.8999999,21.632 C25.8999999,22.090669 26.1559973,22.32 26.6679999,22.32 L31.4999999,22.32 C32.0120024,22.32 32.2679999,22.090669 32.2679999,21.632 Z M46.9959998,21.632 C46.9959998,22.3786704 46.7346691,23 46.2119998,23.496 C45.6893306,23.9920025 45.0546702,24.24 44.3079998,24.24 L39.4759998,24.24 C38.7293294,24.24 38.0946691,23.9920025 37.5719998,23.496 C37.0493306,23 36.7879998,22.3786704 36.7879998,21.632 L36.7879998,18.608 C36.7879998,17.8613296 37.0493306,17.2400025 37.5719998,16.744 C38.0946691,16.2479975 38.7293294,16 39.4759998,16 L44.3079998,16 C45.0546702,16 45.6893306,16.2479975 46.2119998,16.744 C46.7346691,17.2400025 46.9959998,17.8613296 46.9959998,18.608 L46.9959998,21.632 Z M45.0759998,21.632 L45.0759998,18.608 C45.0759998,18.149331 44.8200024,17.92 44.3079998,17.92 L39.4759998,17.92 C38.9639973,17.92 38.7079998,18.149331 38.7079998,18.608 L38.7079998,21.632 C38.7079998,22.090669 38.9639973,22.32 39.4759998,22.32 L44.3079998,22.32 C44.8200024,22.32 45.0759998,22.090669 45.0759998,21.632 Z M57.5639998,16 C58.27867,16 58.8546643,16.2933304 59.2919998,16.88 C59.6973351,17.413336 59.8999998,18.0479963 59.8999998,18.784 C59.8999998,19.5200037 59.6973351,20.1493307 59.2919998,20.672 C58.8546643,21.2586696 58.27867,21.552 57.5639998,21.552 L51.5159998,21.552 L51.5159998,24.24 L49.5959998,24.24 L49.5959998,16 L57.5639998,16 Z M57.5639998,17.92 L51.5159998,17.92 L51.5159998,19.632 L57.5639998,19.632 C57.8413345,19.632 57.9799998,19.3493362 57.9799998,18.784 C57.9799998,18.2079971 57.8413345,17.92 57.5639998,17.92 L57.5639998,17.92 Z" id="MANURLLOOP"></path>
                            </g>
                        </g>
                    </g>
                </g>
            </g>
        </g>
    </g>
</svg>