<?xml version="1.0" encoding="UTF-8"?>
<svg width="112px" height="40px" viewBox="0 0 112 40" version="1.1" xmlns="http://www.w3.org/2000/svg" xmlns:xlink="http://www.w3.org/1999/xlink">
    <!-- Generator: Sketch 59.1 (86144) - https://sketch.com -->
    <title>mdpi/RUTO_LOOP-默认</title>
    <desc>Created with Sketch.</desc>
    <defs>
        <rect id="path-1" x="0" y="0" width="112" height="40" rx="8"></rect>
        <filter x="-0.7%" y="-1.9%" width="101.3%" height="103.8%" filterUnits="objectBoundingBox" id="filter-2">
            <feOffset dx="0" dy="1.5" in="SourceAlpha" result="shadowOffsetInner1"></feOffset>
            <feComposite in="shadowOffsetInner1" in2="SourceAlpha" operator="arithmetic" k2="-1" k3="1" result="shadowInnerInner1"></feComposite>
            <feColorMatrix values="0 0 0 0 1   0 0 0 0 1   0 0 0 0 1  0 0 0 0.145210598 0" type="matrix" in="shadowInnerInner1"></feColorMatrix>
        </filter>
    </defs>
    <g id="Page-1" stroke="none" stroke-width="1" fill="none" fill-rule="evenodd">
        <g id="DJ-状态" transform="translate(-169.000000, -784.000000)" fill-rule="nonzero">
            <g id="Group-11" transform="translate(40.000000, 616.000000)">
                <g id="分组-2-copy-3" transform="translate(1.000000, 168.000000)">
                    <g id="Group-2">
                        <g id="RUTO_LOOP-默认" transform="translate(128.000000, 0.000000)">
                            <g id="矩形">
                                <use fill="#212326" xlink:href="#path-1"></use>
                                <use fill="black" fill-opacity="1" filter="url(#filter-2)" xlink:href="#path-1"></use>
                                <rect stroke="#000000" stroke-width="1" stroke-linejoin="square" x="0.5" y="0.5" width="111" height="39" rx="8"></rect>
                            </g>
                            <g id="RUTOLOOP-2" transform="translate(30.864000, 8.760000)" fill="#FFFFFF" opacity="0.497628348">
                                <path d="M9.664,8.24 L7.04,8.24 L2.928,3.616 L7.872,3.616 C8.22400176,3.616 8.4,3.33333616 8.4,2.768 C8.4,2.20266384 8.22400176,1.92 7.872,1.92 L1.92,1.92 L1.92,8.24 L-9.9475983e-14,8.24 L-9.9475983e-14,-1.10134124e-13 L7.984,-1.10134124e-13 C8.72000368,-1.10134124e-13 9.3013312,0.28799712 9.728,0.864 C10.1226686,1.38666928 10.32,2.0213296 10.32,2.768 C10.32,3.5146704 10.1226686,4.14933072 9.728,4.672 C9.3013312,5.24800288 8.72000368,5.536 7.984,5.536 L7.248,5.536 L9.664,8.24 Z M23.032,5.68 C23.032,6.3733368 22.8133355,6.97066416 22.376,7.472 C21.9386644,7.97333584 21.37867,8.224 20.696,8.224 L15.256,8.224 C14.5626632,8.224 14.0000021,7.97333584 13.568,7.472 C13.1359978,6.97066416 12.92,6.3733368 12.92,5.68 L12.92,-1.10134124e-13 L14.84,-1.10134124e-13 L14.84,5.68 C14.84,6.09600208 14.9786652,6.304 15.256,6.304 L20.696,6.304 C20.962668,6.304 21.096,6.09600208 21.096,5.68 L21.096,-1.10134124e-13 L23.032,-1.10134124e-13 L23.032,5.68 Z M34.9759999,1.92 L31.2639999,1.92 L31.2639999,8.24 L29.3439999,8.24 L29.3439999,1.92 L25.6319999,1.92 L25.6319999,-1.10134124e-13 L34.9759999,-1.10134124e-13 L34.9759999,1.92 Z M47.6719999,5.632 C47.6719999,6.3786704 47.4106691,7 46.8879999,7.496 C46.3653306,7.99200248 45.7306703,8.24 44.9839999,8.24 L40.1519999,8.24 C39.4053295,8.24 38.7706691,7.99200248 38.2479999,7.496 C37.7253306,7 37.4639999,6.3786704 37.4639999,5.632 L37.4639999,2.608 C37.4639999,1.8613296 37.7253306,1.24000248 38.2479999,0.744 C38.7706691,0.24799752 39.4053295,-1.10134124e-13 40.1519999,-1.10134124e-13 L44.9839999,-1.10134124e-13 C45.7306703,-1.10134124e-13 46.3653306,0.24799752 46.8879999,0.744 C47.4106691,1.24000248 47.6719999,1.8613296 47.6719999,2.608 L47.6719999,5.632 Z M45.7519999,5.632 L45.7519999,2.608 C45.7519999,2.14933104 45.4960024,1.92 44.9839999,1.92 L40.1519999,1.92 C39.6399973,1.92 39.3839999,2.14933104 39.3839999,2.608 L39.3839999,5.632 C39.3839999,6.09066896 39.6399973,6.32 40.1519999,6.32 L44.9839999,6.32 C45.4960024,6.32 45.7519999,6.09066896 45.7519999,5.632 Z M9.59599998,24.24 L1.35599998,24.24 L1.35599998,16 L3.27599998,16 L3.27599998,22.32 L9.59599998,22.32 L9.59599998,24.24 Z M22.4039999,21.632 C22.4039999,22.3786704 22.1426692,23 21.6199999,23.496 C21.0973306,23.9920025 20.4626703,24.24 19.7159999,24.24 L14.8839999,24.24 C14.1373295,24.24 13.5026692,23.9920025 12.9799999,23.496 C12.4573306,23 12.1959999,22.3786704 12.1959999,21.632 L12.1959999,18.608 C12.1959999,17.8613296 12.4573306,17.2400025 12.9799999,16.744 C13.5026692,16.2479975 14.1373295,16 14.8839999,16 L19.7159999,16 C20.4626703,16 21.0973306,16.2479975 21.6199999,16.744 C22.1426692,17.2400025 22.4039999,17.8613296 22.4039999,18.608 L22.4039999,21.632 Z M20.4839999,21.632 L20.4839999,18.608 C20.4839999,18.149331 20.2280025,17.92 19.7159999,17.92 L14.8839999,17.92 C14.3719974,17.92 14.1159999,18.149331 14.1159999,18.608 L14.1159999,21.632 C14.1159999,22.090669 14.3719974,22.32 14.8839999,22.32 L19.7159999,22.32 C20.2280025,22.32 20.4839999,22.090669 20.4839999,21.632 Z M35.2119999,21.632 C35.2119999,22.3786704 34.9506692,23 34.4279999,23.496 C33.9053306,23.9920025 33.2706703,24.24 32.5239999,24.24 L27.6919999,24.24 C26.9453295,24.24 26.3106692,23.9920025 25.7879999,23.496 C25.2653306,23 25.0039999,22.3786704 25.0039999,21.632 L25.0039999,18.608 C25.0039999,17.8613296 25.2653306,17.2400025 25.7879999,16.744 C26.3106692,16.2479975 26.9453295,16 27.6919999,16 L32.5239999,16 C33.2706703,16 33.9053306,16.2479975 34.4279999,16.744 C34.9506692,17.2400025 35.2119999,17.8613296 35.2119999,18.608 L35.2119999,21.632 Z M33.2919999,21.632 L33.2919999,18.608 C33.2919999,18.149331 33.0360024,17.92 32.5239999,17.92 L27.6919999,17.92 C27.1799973,17.92 26.9239999,18.149331 26.9239999,18.608 L26.9239999,21.632 C26.9239999,22.090669 27.1799973,22.32 27.6919999,22.32 L32.5239999,22.32 C33.0360024,22.32 33.2919999,22.090669 33.2919999,21.632 Z M45.7799998,16 C46.4946701,16 47.0706643,16.2933304 47.5079998,16.88 C47.9133352,17.413336 48.1159998,18.0479963 48.1159998,18.784 C48.1159998,19.5200037 47.9133352,20.1493307 47.5079998,20.672 C47.0706643,21.2586696 46.4946701,21.552 45.7799998,21.552 L39.7319998,21.552 L39.7319998,24.24 L37.8119998,24.24 L37.8119998,16 L45.7799998,16 Z M45.7799998,17.92 L39.7319998,17.92 L39.7319998,19.632 L45.7799998,19.632 C46.0573346,19.632 46.1959998,19.3493362 46.1959998,18.784 C46.1959998,18.2079971 46.0573346,17.92 45.7799998,17.92 L45.7799998,17.92 Z" id="RUTOLOOP"></path>
                            </g>
                        </g>
                    </g>
                </g>
            </g>
        </g>
    </g>
</svg>