<?xml version="1.0" encoding="UTF-8"?>
<svg width="112px" height="40px" viewBox="0 0 112 40" version="1.1" xmlns="http://www.w3.org/2000/svg" xmlns:xlink="http://www.w3.org/1999/xlink">
    <!-- Generator: Sketch 59.1 (86144) - https://sketch.com -->
    <title>mdpi/SAMPLER-默认</title>
    <desc>Created with Sketch.</desc>
    <defs>
        <rect id="path-1" x="0" y="0" width="112" height="40" rx="8"></rect>
        <filter x="-0.7%" y="-1.9%" width="101.3%" height="103.8%" filterUnits="objectBoundingBox" id="filter-2">
            <feOffset dx="0" dy="1.5" in="SourceAlpha" result="shadowOffsetInner1"></feOffset>
            <feComposite in="shadowOffsetInner1" in2="SourceAlpha" operator="arithmetic" k2="-1" k3="1" result="shadowInnerInner1"></feComposite>
            <feColorMatrix values="0 0 0 0 1   0 0 0 0 1   0 0 0 0 1  0 0 0 0.145210598 0" type="matrix" in="shadowInnerInner1"></feColorMatrix>
        </filter>
    </defs>
    <g id="Page-1" stroke="none" stroke-width="1" fill="none" fill-rule="evenodd">
        <g id="DJ-状态" transform="translate(-425.000000, -784.000000)" fill-rule="nonzero">
            <g id="Group-11" transform="translate(40.000000, 616.000000)">
                <g id="分组-2-copy-3" transform="translate(1.000000, 168.000000)">
                    <g id="Group-2">
                        <g id="SAMPLER-默认" transform="translate(384.000000, 0.000000)">
                            <g id="矩形">
                                <use fill="#212326" xlink:href="#path-1"></use>
                                <use fill="black" fill-opacity="1" filter="url(#filter-2)" xlink:href="#path-1"></use>
                                <rect stroke="#000000" stroke-width="1" stroke-linejoin="square" x="0.5" y="0.5" width="111" height="39" rx="8"></rect>
                            </g>
                            <g id="SAMPLER-2" transform="translate(14.172000, 15.760000)" fill="#FFFFFF" opacity="0.497395833">
                                <path d="M9.824,5.696 C9.824,6.3893368 9.61600208,6.98133088 9.2,7.472 C8.75199776,7.98400256 8.18667008,8.24 7.504,8.24 L0.4,8.24 L0.4,6.32 L7.504,6.32 C7.770668,6.32 7.904,6.11200208 7.904,5.696 C7.904,5.27999792 7.770668,5.072 7.504,5.072 L2.336,5.072 C1.65332992,5.072 1.08800224,4.81600256 0.64,4.304 C0.2133312,3.8239976 -2.13162821e-13,3.2373368 -2.13162821e-13,2.544 C-2.13162821e-13,1.8506632 0.21866448,1.25333584 0.656,0.752 C1.09333552,0.25066416 1.65332992,-1.09245946e-13 2.336,-1.09245946e-13 L9.44,-1.09245946e-13 L9.44,1.92 L2.336,1.92 C2.069332,1.92 1.936,2.12799792 1.936,2.544 C1.936,2.94933536 2.069332,3.152 2.336,3.152 L7.504,3.152 C8.18667008,3.152 8.75199776,3.40799744 9.2,3.92 C9.61600208,4.41066912 9.824,5.0026632 9.824,5.696 Z M22.52,8.24 L20.6,8.24 L20.6,5.616 L15.544,5.616 L15.544,3.696 L20.6,3.696 L20.6,2.544 C20.6,2.12799792 20.4613347,1.92 20.184,1.92 L14.744,1.92 C14.477332,1.92 14.344,2.12799792 14.344,2.544 L14.344,8.24 L12.424,8.24 L12.424,2.544 C12.424,1.8506632 12.6399978,1.25333584 13.072,0.752 C13.5040021,0.25066416 14.0613299,-1.09245946e-13 14.744,-1.09245946e-13 L20.184,-1.09245946e-13 C20.8773368,-1.09245946e-13 21.4399978,0.25066416 21.872,0.752 C22.3040021,1.25333584 22.52,1.8506632 22.52,2.544 L22.52,8.24 Z M35.8079999,8.24 L33.8879999,8.24 L33.8879999,3.216 L30.4639999,8.096 L27.0399999,3.216 L27.0399999,8.24 L25.1199999,8.24 L25.1199999,-1.09245946e-13 L27.1359999,-1.09245946e-13 L30.4639999,4.752 L33.8079999,-1.09245946e-13 L35.8079999,-1.09245946e-13 L35.8079999,8.24 Z M48.7119999,2.784 C48.7119999,3.52000368 48.5093352,4.14933072 48.1039999,4.672 C47.6666643,5.2586696 47.0906701,5.552 46.3759999,5.552 L40.3279999,5.552 L40.3279999,8.24 L38.4079999,8.24 L38.4079999,-1.09245946e-13 L46.3759999,-1.09245946e-13 C47.0906701,-1.09245946e-13 47.6666643,0.2933304 48.1039999,0.88 C48.5093352,1.413336 48.7119999,2.04799632 48.7119999,2.784 Z M46.7919999,2.784 C46.7919999,2.20799712 46.6533346,1.92 46.3759999,1.92 L40.3279999,1.92 L40.3279999,3.632 L46.3759999,3.632 C46.6533346,3.632 46.7919999,3.34933616 46.7919999,2.784 Z M59.5519998,8.24 L51.3119998,8.24 L51.3119998,-1.09245946e-13 L53.2319998,-1.09245946e-13 L53.2319998,6.32 L59.5519998,6.32 L59.5519998,8.24 Z M70.9359998,1.92 L64.0719998,1.92 L64.0719998,3.152 L70.4879998,3.152 L70.4879998,5.072 L64.0719998,5.072 L64.0719998,6.32 L70.9199998,6.32 L70.9199998,8.24 L62.1519998,8.24 L62.1519998,-1.09245946e-13 L70.9359998,-1.09245946e-13 L70.9359998,1.92 Z M83.1999997,8.24 L80.5759997,8.24 L76.4639997,3.616 L81.4079997,3.616 C81.7600015,3.616 81.9359997,3.33333616 81.9359997,2.768 C81.9359997,2.20266384 81.7600015,1.92 81.4079997,1.92 L75.4559997,1.92 L75.4559997,8.24 L73.5359997,8.24 L73.5359997,-1.09245946e-13 L81.5199997,-1.09245946e-13 C82.2560034,-1.09245946e-13 82.8373309,0.28799712 83.2639997,0.864 C83.6586684,1.38666928 83.8559997,2.0213296 83.8559997,2.768 C83.8559997,3.5146704 83.6586684,4.14933072 83.2639997,4.672 C82.8373309,5.24800288 82.2560034,5.536 81.5199997,5.536 L80.7839997,5.536 L83.1999997,8.24 Z" id="SAMPLER"></path>
                            </g>
                        </g>
                    </g>
                </g>
            </g>
        </g>
    </g>
</svg>