<?xml version="1.0" encoding="UTF-8"?>
<!-- Created with Inkscape (http://www.inkscape.org/) -->
<svg 
	width="300" 
	height="300" 
	version="1.1" 
	viewBox="0 0 300 300" 
	xmlns="http://www.w3.org/2000/svg">
 <rect
 	y="-4.8828e-6" 
 	width="300" 
 	height="300" 
 	fill="#00222b" 
 	style="paint-order:markers fill stroke"/>
 <path 
 	d="m100.32 22.21c-23.404 0-1.2257 12.298-22.848 21.255-21.622 8.9563-14.635-15.424-31.184 1.1252s7.8295 9.5628-1.1268 31.185c-8.9563 21.622-21.255-0.55583-21.255 22.848 0 23.404 12.298 1.2241 21.255 22.847 8.9563 21.622-15.422 14.636 1.1268 31.185 16.549 16.549 9.5612-7.8295 31.184 1.1268 21.622 8.9563-0.55584 21.255 22.848 21.255 23.404 0 1.2257-12.298 22.848-21.255s14.636 15.422 31.185-1.1268c16.549-16.549-7.8311-9.5628 1.1252-31.185s21.255 0.5574 21.255-22.847c0-23.404-12.298-1.2257-21.255-22.848-8.9563-21.622 15.424-14.636-1.1252-31.185-16.549-16.549-9.5628 7.8311-31.185-1.1252-21.622-8.9563 0.55583-21.255-22.848-21.255zm0 51.585a24.828 24.828 0 0 1 24.829 24.829 24.828 24.828 0 0 1 -24.829 24.827 24.828 24.828 0 0 1 -24.827 -24.827 24.828 24.828 0 0 1 24.827 -24.829zm0 12.985c-6.2009 2.3e-4 -11.842 5.643-11.842 11.844 2.22e-4 6.2006 5.6417 11.842 11.842 11.842 6.2009 1.7e-4 11.844-5.6415 11.844-11.842 1.7e-4 -6.2011-5.6428-11.844-11.844-11.844z" 
 	fill="#f60" 
 	style="paint-order:markers fill stroke">
 	<animateTransform
 		id="gear_1"
 		attributeName="transform"
 		type="rotate"
 		from="0 100 98.5"
 		to="90 100 98.5"
 		begin="0s;gear_1.end"
 		dur="1s"
 		repeatCount="indefinite"
 		/>
 </path>
 <path 
 	d="m214.34 118.02c-12.026 0.14866 1.4507 17.713-19.732 19.566-24.209 2.118-7.4029-23.835-29.428-13.564s8.6605 14.078-8.5234 31.262-20.991-13.501-31.262 8.5234c-10.27 22.025 15.682 5.2184 13.564 29.428s-24.759 3.1513-18.469 26.625 15.368-6.0846 29.307 13.822-16.94 18.327 2.9668 32.266c19.907 13.939 7.8603-14.538 31.334-8.248 23.474 6.2898-1.1956 24.929 23.014 22.811s-3.3218-16.189 18.703-26.459c22.025-10.27 15.107 19.866 32.291 2.6816s-12.952-10.266-2.6816-32.291c10.27-22.025 24.341 5.5062 26.459-18.703 2.118-24.209-16.521 0.46198-22.811-23.012s22.187-11.429 8.248-31.336-12.359 10.972-32.266-2.9668c-19.907-13.939 9.6495-23.015-13.824-29.305-2.9342-0.78622-5.1727-1.1208-6.8906-1.0996zm-13.619 55.613a25.714 25.714 0 0 1 25.715 25.715 25.714 25.714 0 0 1 -25.715 25.715 25.714 25.714 0 0 1 -25.715 -25.715 25.714 25.714 0 0 1 25.715 -25.715z" 
 	fill="#06f" 
 	style="paint-order:markers fill stroke">
 	<animateTransform
 		id="gear_2"
 		attributeName="transform"
 		type="rotate"
 		from="0 200.7 199.2"
 		to="-81 200.7 199.2"
 		begin="gear_1.begin"
 		dur="1s"
 		repeatCount="indefinite"
 		/>
 </path>
</svg>
